<?xml version="1.0" encoding="UTF-8" standalone="no"?>
<!DOCTYPE svg PUBLIC "-//W3C//DTD SVG 1.1//EN" "http://www.w3.org/Graphics/SVG/1.1/DTD/svg11.dtd">
<svg width="100%" height="100%" viewBox="0 0 404 290" version="1.1" xmlns="http://www.w3.org/2000/svg" xmlns:xlink="http://www.w3.org/1999/xlink" xml:space="preserve" xmlns:serif="http://www.serif.com/" style="fill-rule:evenodd;clip-rule:evenodd;stroke-linejoin:round;stroke-miterlimit:2;">
    <path d="M358.581,115.086C358.581,115.086 331.255,25.354 221.995,86.603C136.547,134.505 115.186,85.956 115.186,85.956C115.186,85.956 141.864,166.549 234.295,123.149C234.295,123.149 333.857,67.056 358.581,115.086Z" style="fill:rgb(202,179,213);fill-opacity:0.7;fill-rule:nonzero;"/>
    <path d="M289.684,95.611C289.684,95.611 262.357,5.879 153.098,67.128C67.65,115.03 46.289,66.481 46.289,66.481C46.289,66.481 72.967,147.074 165.398,103.674C165.397,103.673 264.958,47.581 289.684,95.611Z" style="fill:rgb(202,179,213);fill-opacity:0.4;fill-rule:nonzero;"/>
    <g>
        <g>
            <path d="M141.247,166.849C141.199,166.969 141.007,167.066 140.719,167.017C139.327,168.769 136.831,171.05 134.695,172.562C134.503,172.202 134.047,171.578 133.759,171.265C135.775,169.945 138.151,167.81 139.375,166.057L141.247,166.849ZM137.575,188.355L137.575,177.794C136.663,178.802 135.751,179.737 134.839,180.53C134.623,180.218 134.119,179.569 133.807,179.282C136.087,177.386 138.727,174.241 140.384,171.241L142.256,172.009C142.184,172.154 141.992,172.249 141.704,172.201C140.984,173.401 140.143,174.626 139.231,175.802L139.663,175.946C139.615,176.09 139.471,176.211 139.183,176.258L139.183,188.355L137.575,188.355ZM156.128,174.553L156.128,176.115L152.312,176.115L152.312,186.267C152.312,188.283 151.544,188.331 146.695,188.331C146.623,187.874 146.407,187.227 146.167,186.747C147.223,186.77 148.207,186.794 148.951,186.794C150.511,186.794 150.679,186.794 150.679,186.243L150.679,176.114L142.326,176.114L142.326,174.553L156.128,174.553ZM155.216,167.57L155.216,169.105L143.239,169.105L143.239,167.57L155.216,167.57Z" style="fill-rule:nonzero;"/>
            <path d="M194.576,172.106L192.608,172.106C191.912,176.089 190.832,179.378 189.176,182.019C190.592,184.226 192.416,185.955 194.744,187.011C194.36,187.323 193.88,187.923 193.616,188.378C191.384,187.251 189.583,185.546 188.191,183.41C186.511,185.522 184.327,187.179 181.47,188.403C181.302,188.018 180.894,187.37 180.63,187.034C183.51,185.858 185.694,184.202 187.302,181.946C186.198,179.905 185.382,177.53 184.734,174.913C184.182,176.161 183.558,177.266 182.862,178.178C182.574,177.89 181.998,177.363 181.638,177.122C181.854,176.833 182.07,176.546 182.262,176.21L178.926,176.21L178.926,182.763C180.318,182.451 181.758,182.138 183.175,181.802L183.319,183.314C179.575,184.252 175.567,185.21 173.094,185.787C173.07,185.979 172.926,186.099 172.758,186.147L172.11,184.251L173.67,183.939L173.67,172.994L175.59,173.114C175.566,173.282 175.446,173.402 175.134,173.45L175.134,183.603L177.39,183.123L177.39,169.178L172.494,169.178L172.494,167.666L183.223,167.666L183.223,169.178L178.927,169.178L178.927,174.723L182.311,174.723L182.311,176.139C183.847,173.618 185.023,169.85 185.743,166.058L187.807,166.514C187.735,166.682 187.591,166.778 187.255,166.778C186.991,168.05 186.679,169.346 186.319,170.594L194.576,170.594L194.576,172.106ZM185.839,172.106L185.695,172.538C186.271,175.467 187.087,178.154 188.263,180.435C189.559,178.154 190.399,175.394 190.975,172.106L185.839,172.106Z" style="fill-rule:nonzero;"/>
            <path d="M222.534,178.443L232.712,178.443L232.712,179.667L210.989,179.667L210.989,178.443L220.927,178.443L220.927,176.882L212.67,176.882L212.67,175.753L220.927,175.753L220.927,174.29L213.414,174.29L213.414,173.186L220.927,173.186L220.927,171.625L211.062,171.625L211.062,170.401L220.927,170.401L220.927,168.889L213.678,168.889L213.678,167.76L220.927,167.76L220.927,166.008L223.015,166.153C222.991,166.321 222.87,166.417 222.535,166.465L222.535,167.761L229.472,167.761L229.472,170.402L232.593,170.402L232.593,171.626L229.472,171.626L229.472,174.291L222.534,174.291L222.534,175.754L230.983,175.754L230.983,176.883L222.534,176.883L222.534,178.443ZM214.158,188.428L214.158,180.891L229.711,180.891L229.711,188.379L228.104,188.379L228.104,187.588L215.718,187.588L215.718,188.428L214.158,188.428ZM228.103,182.066L215.717,182.066L215.717,183.651L228.103,183.651L228.103,182.066ZM215.717,186.412L228.103,186.412L228.103,184.756L215.717,184.756L215.717,186.412ZM222.534,168.89L222.534,170.402L227.863,170.402L227.863,168.89L222.534,168.89ZM222.534,171.626L222.534,173.187L227.863,173.187L227.863,171.626L222.534,171.626Z" style="fill-rule:nonzero;"/>
            <path d="M271.112,175.514L261.007,175.514L261.007,185.595L269.816,185.595L269.816,187.202L250.734,187.202L250.734,185.595L259.327,185.595L259.327,175.514L249.366,175.514L249.366,173.906L259.327,173.906L259.327,166.13L261.511,166.274C261.488,166.442 261.343,166.562 261.007,166.61L261.007,173.907L271.112,173.907L271.112,175.514Z" style="fill-rule:nonzero;"/>
        </g>
    </g>
    <path d="M54.016,209.67L57.323,209.67C57.323,212.213 57.21,215.83 56.983,220.522C56.756,225.214 56.644,228.661 56.644,230.866C56.644,237.507 59.06,240.826 63.893,240.826C66.633,240.826 69.255,239.753 71.756,237.604C74.257,235.458 76.496,232.221 78.475,227.898L81.314,229.296C79.195,234.1 76.652,237.731 73.685,240.19C70.717,242.649 67.454,243.878 63.893,243.878C62.338,243.878 60.953,243.672 59.739,243.263C58.523,242.854 57.414,242.174 56.411,241.229C55.407,240.282 54.638,238.94 54.101,237.202C53.564,235.464 53.295,233.352 53.295,230.866C53.295,228.718 53.407,225.298 53.634,220.606C53.889,215.321 54.016,211.676 54.016,209.67Z" style="fill-rule:nonzero;"/>
    <path d="M116.964,213.908L117.176,216.705C113.049,217.158 109.46,217.482 106.409,217.682C106.409,218.246 106.415,219.094 106.43,220.225C106.444,221.356 106.465,222.203 106.493,222.768L106.578,225.694C108.725,225.184 111.029,224.93 113.487,224.93C117.104,224.93 119.944,225.771 122.008,227.451C124.07,229.133 125.103,231.401 125.103,234.255C125.103,237.082 124.254,239.342 122.56,241.038C120.863,242.732 118.602,243.581 115.777,243.581C114.024,243.581 112.385,243.312 110.86,242.775L111.411,240.062C112.711,240.514 114.139,240.74 115.693,240.74C117.613,240.74 119.132,240.176 120.249,239.045C121.365,237.916 121.923,236.36 121.923,234.383C121.923,232.291 121.167,230.674 119.656,229.529C118.144,228.384 115.932,227.811 113.022,227.811C110.817,227.811 108.683,228.08 106.621,228.617C106.678,232.235 106.706,234.961 106.706,236.798C106.706,239.116 106.31,240.756 105.519,241.715C104.727,242.676 103.427,243.156 101.619,243.156C99.188,243.156 97.098,242.521 95.346,241.25C93.594,239.979 92.718,238.494 92.718,236.798C92.718,234.934 93.699,233.047 95.664,231.139C97.628,229.233 100.192,227.728 103.357,226.625C103.357,226.201 103.342,225.566 103.315,224.717C103.286,223.87 103.272,223.235 103.272,222.811L103.145,217.85C100.658,217.963 97.804,218.02 94.583,218.02L94.583,215.18C97.776,215.18 100.616,215.123 103.104,215.011C103.075,213.485 103.061,211.182 103.061,208.101L106.283,208.101C106.283,209.657 106.311,211.903 106.368,214.841C109.842,214.615 113.375,214.304 116.964,213.908ZM103.398,229.719C101.166,230.653 99.372,231.762 98.015,233.047C96.659,234.334 95.981,235.541 95.981,236.671C95.981,237.604 96.496,238.445 97.528,239.193C98.559,239.943 99.781,240.316 101.195,240.316C102.043,240.316 102.635,240.089 102.974,239.638C103.314,239.187 103.483,238.239 103.483,236.797C103.483,235.245 103.455,232.885 103.398,229.719ZM118.998,215.265L121.245,213.314C123.646,215.717 125.85,218.162 127.856,220.648L125.525,222.47C123.688,220.181 121.513,217.78 118.998,215.265Z" style="fill-rule:nonzero;"/>
    <path d="M145.237,219.969C142.269,220.251 139.655,220.521 137.394,220.775L137.225,217.935C139.655,217.652 142.537,217.371 145.871,217.086C146.465,214.063 146.931,210.968 147.27,207.803L150.366,208.058C150.082,211.025 149.659,213.964 149.094,216.874C150.62,216.79 151.892,216.747 152.909,216.747C154.716,216.747 156.073,216.826 156.977,216.98C157.882,217.136 158.631,217.559 159.223,218.251C159.818,218.943 160.184,219.834 160.327,220.922C160.469,222.01 160.538,223.629 160.538,225.776C160.538,231.118 159.712,235.35 158.059,238.471C156.407,241.594 154.462,243.155 152.23,243.155C150.393,243.155 148.133,242.067 145.449,239.891L146.974,237.221C149.235,239.115 150.958,240.061 152.147,240.061C153.445,240.061 154.64,238.74 155.727,236.098C156.816,233.455 157.361,229.83 157.361,225.225C157.361,223.813 157.318,222.766 157.233,222.088C157.147,221.409 156.929,220.858 156.576,220.434C156.222,220.011 155.793,219.756 155.284,219.671C154.775,219.586 153.97,219.544 152.867,219.544C151.935,219.544 150.479,219.615 148.501,219.756C146.721,227.726 143.824,235.596 139.812,243.366L137.014,242.179C140.743,234.948 143.484,227.544 145.237,219.969ZM162.022,214.969L164.905,213.739C168.155,219.674 170.981,226.485 173.383,234.171L170.459,235.146C168.112,227.769 165.301,221.045 162.022,214.969Z" style="fill-rule:nonzero;"/>
    <path d="M204.624,209.16L207.762,209.203C207.676,212.537 207.649,215.42 207.676,217.849C210.219,217.624 212.989,217.341 215.985,217.001L216.24,219.757C213.047,220.124 210.206,220.407 207.719,220.605L207.719,221.793L207.762,227.77C207.762,230.963 206.434,232.559 203.776,232.559C201.798,232.559 198.944,231.938 195.215,230.696L196.062,227.855C199.285,228.957 201.643,229.508 203.143,229.508C203.651,229.508 204.025,229.36 204.266,229.063C204.506,228.766 204.625,228.096 204.625,227.049L204.625,221.327C204.625,221.269 204.618,221.199 204.604,221.114C204.588,221.029 204.582,220.959 204.582,220.902C200.004,221.269 195.229,221.566 190.255,221.793C190.34,226.031 190.381,230.045 190.381,233.83C190.381,235.018 190.438,235.951 190.552,236.629C190.664,237.308 190.876,237.916 191.187,238.452C191.498,238.988 192.015,239.37 192.735,239.597C193.456,239.823 194.318,239.993 195.321,240.106C196.323,240.218 197.686,240.274 199.411,240.274C203.255,240.274 207.126,239.993 211.026,239.427L211.323,242.31C207.086,242.875 203.071,243.157 199.285,243.157C194.338,243.157 191.075,242.544 189.493,241.313C187.908,240.084 187.118,237.59 187.118,233.831C187.118,230.216 187.076,226.244 186.992,221.921C184.533,222.005 182.271,222.048 180.21,222.048L180.21,219.292C182.215,219.292 184.447,219.251 186.907,219.165C186.878,218.29 186.844,216.94 186.802,215.118C186.759,213.295 186.723,211.93 186.696,211.026L189.96,210.984C189.986,211.861 190.022,213.21 190.065,215.032C190.108,216.854 190.144,218.19 190.17,219.038C194.352,218.841 199.156,218.529 204.583,218.106C204.526,214.855 204.539,211.873 204.624,209.16ZM208.865,207.211L211.322,206.321C212.284,208.412 213.216,210.631 214.12,212.974L211.662,213.781C211.095,212.312 210.163,210.121 208.865,207.211ZM214.037,206.491L216.58,205.642C217.907,208.58 218.868,210.841 219.463,212.425L216.917,213.229C216.071,211.082 215.11,208.837 214.037,206.491Z" style="fill-rule:nonzero;"/>
    <path d="M266.457,230.872L266.457,232.567L263.362,232.567L263.362,240.58L261.328,240.58L261.328,238.248L249.035,238.248L249.035,241.172C249.035,242.613 248.786,243.504 248.293,243.843C247.798,244.183 246.533,244.352 244.499,244.352C243.312,244.352 241.334,244.281 238.564,244.14L238.564,242.444C241.304,242.557 243.227,242.614 244.33,242.614C245.628,242.614 246.385,242.565 246.596,242.466C246.81,242.367 246.916,241.98 246.916,241.301L246.916,238.249L231.444,238.249L231.444,236.554L246.917,236.554L246.917,232.569L229.493,232.569L229.493,230.874L246.917,230.874L246.917,226.974L231.444,226.974L231.444,225.321L246.917,225.321L246.917,222.397L233.182,222.397L233.182,215.02L246.917,215.02L246.917,212.01L229.919,212.01L229.919,210.315L246.917,210.315L246.917,207.39L249.036,207.39L249.036,210.315L266.034,210.315L266.034,212.01L249.036,212.01L249.036,215.02L262.769,215.02L262.769,222.397L249.036,222.397L249.036,225.321L263.363,225.321L263.363,230.875L266.457,230.875L266.457,230.872ZM235.215,220.74L246.916,220.74L246.916,216.672L235.215,216.672L235.215,220.74ZM249.036,216.672L249.036,220.74L260.734,220.74L260.734,216.672L249.036,216.672ZM249.036,226.971L249.036,230.871L261.329,230.871L261.329,226.971L249.036,226.971ZM249.036,232.567L249.036,236.552L261.329,236.552L261.329,232.567L249.036,232.567Z" style="fill-rule:nonzero;"/>
    <path d="M278.706,242.359C279.442,242.359 279.872,242.232 280,241.978C280.126,241.723 280.191,240.847 280.191,239.349L280.191,226.419C277.986,231.366 275.357,235.605 272.305,239.138L271.202,237.442C274.566,233.656 277.42,228.908 279.765,223.199L271.924,223.199L271.924,221.377L280.993,221.377C278.592,218.607 276.389,216.262 274.381,214.34L275.652,213.111C276.923,214.326 278.493,215.951 280.358,217.985C282.647,215.923 284.695,213.69 286.504,211.288L272.729,211.288L272.729,209.549L288.75,209.549L288.75,211.288C286.603,214.226 284.215,216.912 281.586,219.342L283.323,221.377L289.09,221.377L289.09,223.199C287.818,226.279 286.277,229.021 284.469,231.424L282.944,230.447C284.555,228.357 285.953,225.941 287.141,223.199L282.138,223.199L282.138,239.306C282.138,241.454 281.976,242.796 281.65,243.333C281.326,243.87 280.5,244.139 279.172,244.139C278.522,244.139 276.993,244.068 274.592,243.927L274.549,242.146C276.757,242.289 278.142,242.359 278.706,242.359ZM297.316,231.254C295.649,237.244 291.623,241.611 285.236,244.352L284.261,242.784C287.256,241.456 289.644,239.858 291.424,237.995C293.204,236.129 294.476,233.883 295.238,231.255L287.057,231.255L287.057,229.432L295.663,229.432C295.944,228.048 296.1,226.62 296.129,225.15L298.206,225.15C298.177,226.564 298.021,227.99 297.74,229.432L307.489,229.432C307.489,233.445 307.341,236.454 307.044,238.46C306.746,240.467 306.258,241.853 305.581,242.614C304.903,243.378 303.899,243.759 302.572,243.759C301.185,243.759 299.306,243.632 296.934,243.378L296.934,241.598C299.108,241.853 300.847,241.98 302.146,241.98C302.995,241.98 303.638,241.74 304.075,241.258C304.513,240.779 304.86,239.753 305.115,238.185C305.369,236.617 305.495,234.306 305.495,231.255L297.316,231.255L297.316,231.254ZM288.033,219.976L286.593,218.832C289.814,215.583 292.215,211.768 293.799,207.387L295.622,207.769C295.282,208.702 294.901,209.634 294.476,210.566L309.016,210.566L309.016,212.347L306.514,212.347C305.355,215.57 303.462,218.451 300.835,220.993C303.236,222.972 306.104,224.583 309.439,225.826L308.761,227.606C305.228,226.335 302.119,224.542 299.435,222.223C296.552,224.569 293.078,226.363 289.006,227.606L288.414,225.911C292.087,224.809 295.308,223.156 298.077,220.952C295.931,218.805 294.193,216.388 292.863,213.703C291.424,216.106 289.813,218.197 288.033,219.976ZM299.479,219.722C301.824,217.518 303.505,215.06 304.522,212.347L294.264,212.347C295.536,215.145 297.273,217.603 299.479,219.722Z" style="fill-rule:nonzero;"/>
    <path d="M317.028,216.205L331.695,216.205L331.695,229.601L319.02,229.601C318.934,235.648 317.931,240.58 316.011,244.395L314.231,243.461C316.094,239.647 317.028,234.461 317.028,227.904L317.028,216.205ZM314.74,211.754L314.74,209.932L332.796,209.932L332.796,211.754L314.74,211.754ZM319.02,227.861L329.83,227.861L329.83,217.985L319.02,217.985L319.02,227.861ZM336.655,222.648C336.315,227.877 335.629,232.044 334.598,235.153C333.565,238.262 331.992,241.116 329.871,243.715L328.346,242.486C330.013,240.424 331.298,238.275 332.203,236.043C333.107,233.811 333.799,230.717 334.28,226.76C334.759,222.804 335,217.619 335,211.203C340.905,210.723 345.823,209.762 349.752,208.32L350.304,210.143C346.685,211.471 342.234,212.389 336.95,212.898C336.95,215.527 336.88,218.155 336.738,220.783L351.576,220.783L351.576,222.648L346.361,222.648L346.361,244.436L344.37,244.436L344.37,222.648L336.655,222.648Z" style="fill-rule:nonzero;"/>
</svg>
