<?xml version="1.0" encoding="UTF-8" standalone="no"?>
<!DOCTYPE svg PUBLIC "-//W3C//DTD SVG 1.1//EN" "http://www.w3.org/Graphics/SVG/1.1/DTD/svg11.dtd">
<svg width="100%" height="100%" viewBox="0 0 237 97" version="1.1" xmlns="http://www.w3.org/2000/svg" xmlns:xlink="http://www.w3.org/1999/xlink" xml:space="preserve" xmlns:serif="http://www.serif.com/" style="fill-rule:evenodd;clip-rule:evenodd;stroke-linejoin:round;stroke-miterlimit:2;">
    <g transform="matrix(0.734152,0,0,0.734152,-100.594,-68.0941)">
        <g opacity="0.7">
            <g transform="matrix(0.118834,-0.992914,-0.992914,-0.118834,366.345,45.3906)">
                <path d="M-126.235,-103.974C-126.235,-103.974 -40.386,-66.178 -114.185,35.029C-171.902,114.179 -126.235,141.158 -126.235,141.158C-126.235,141.158 -203.086,105.092 -149.01,18.473C-149.01,18.473 -81.484,-73.717 -126.235,-103.974" style="fill:rgb(204,178,212);fill-rule:nonzero;"/>
            </g>
        </g>
    </g>
    <g transform="matrix(0.734152,0,0,0.734152,-100.594,-68.0941)">
        <g opacity="0.4">
            <g transform="matrix(0.118833,-0.992914,-0.992914,-0.118833,297.447,25.9145)">
                <path d="M-126.236,-103.975C-126.236,-103.975 -40.387,-66.178 -114.185,35.028C-171.902,114.179 -126.236,141.158 -126.236,141.158C-126.236,141.158 -203.086,105.092 -149.011,18.474C-149.011,18.474 -81.484,-73.716 -126.236,-103.975" style="fill:rgb(204,178,212);fill-rule:nonzero;"/>
            </g>
        </g>
    </g>
</svg>
