<?xml version="1.0" encoding="UTF-8" standalone="no"?>
<!DOCTYPE svg PUBLIC "-//W3C//DTD SVG 1.1//EN" "http://www.w3.org/Graphics/SVG/1.1/DTD/svg11.dtd">
<svg width="100%" height="100%" viewBox="0 0 528 100" version="1.1" xmlns="http://www.w3.org/2000/svg" xmlns:xlink="http://www.w3.org/1999/xlink" xml:space="preserve" xmlns:serif="http://www.serif.com/" style="fill-rule:evenodd;clip-rule:evenodd;stroke-linejoin:round;stroke-miterlimit:2;">
    <g>
        <g>
            <path d="M241.443,21.359C241.403,21.459 241.243,21.539 241.003,21.499C239.843,22.96 237.762,24.86 235.982,26.12C235.822,25.82 235.442,25.3 235.202,25.04C236.882,23.939 238.863,22.159 239.883,20.699L241.443,21.359ZM238.383,39.283L238.383,30.481C237.623,31.321 236.862,32.101 236.103,32.761C235.923,32.501 235.503,31.961 235.243,31.721C237.143,30.141 239.344,27.52 240.724,25.02L242.285,25.66C242.225,25.78 242.065,25.86 241.825,25.82C241.225,26.82 240.525,27.841 239.764,28.821L240.124,28.941C240.084,29.06 239.964,29.161 239.724,29.201L239.724,39.283L238.383,39.283ZM253.846,27.78L253.846,29.081L250.665,29.081L250.665,37.543C250.665,39.223 250.025,39.263 245.984,39.263C245.924,38.883 245.744,38.343 245.544,37.943C246.424,37.964 247.244,37.983 247.864,37.983C249.164,37.983 249.304,37.983 249.304,37.523L249.304,29.082L242.343,29.082L242.343,27.781L253.846,27.781L253.846,27.78ZM253.086,21.959L253.086,23.239L243.104,23.239L243.104,21.959L253.086,21.959Z" style="fill-rule:nonzero;"/>
            <path d="M285.886,25.74L284.245,25.74C283.665,29.06 282.765,31.802 281.385,34.002C282.565,35.843 284.085,37.282 286.026,38.163C285.706,38.423 285.306,38.923 285.086,39.303C283.226,38.364 281.726,36.943 280.565,35.162C279.165,36.923 277.344,38.303 274.963,39.323C274.823,39.003 274.484,38.463 274.263,38.182C276.663,37.203 278.484,35.822 279.825,33.942C278.905,32.241 278.224,30.26 277.684,28.081C277.224,29.121 276.704,30.041 276.123,30.802C275.883,30.562 275.403,30.121 275.103,29.921C275.283,29.681 275.462,29.442 275.623,29.161L272.843,29.161L272.843,34.622C274.003,34.362 275.203,34.101 276.384,33.822L276.503,35.082C273.383,35.862 270.042,36.662 267.982,37.143C267.962,37.303 267.842,37.403 267.702,37.443L267.162,35.863L268.462,35.603L268.462,26.481L270.063,26.581C270.042,26.722 269.943,26.821 269.682,26.861L269.682,35.323L271.563,34.923L271.563,23.3L267.482,23.3L267.482,22.039L276.424,22.039L276.424,23.3L272.843,23.3L272.843,27.921L275.663,27.921L275.663,29.101C276.943,27.001 277.924,23.86 278.523,20.7L280.244,21.08C280.184,21.221 280.064,21.3 279.784,21.3C279.564,22.361 279.304,23.441 279.004,24.481L285.886,24.481L285.886,25.74ZM278.604,25.74L278.484,26.1C278.964,28.54 279.645,30.781 280.625,32.681C281.705,30.781 282.405,28.48 282.886,25.74L278.604,25.74Z" style="fill-rule:nonzero;"/>
            <path d="M309.183,31.021L317.665,31.021L317.665,32.042L299.561,32.042L299.561,31.021L307.842,31.021L307.842,29.72L300.961,29.72L300.961,28.781L307.842,28.781L307.842,27.56L301.581,27.56L301.581,26.64L307.842,26.64L307.842,25.339L299.62,25.339L299.62,24.319L307.842,24.319L307.842,23.058L301.801,23.058L301.801,22.118L307.842,22.118L307.842,20.658L309.582,20.778C309.562,20.918 309.462,20.998 309.183,21.038L309.183,22.118L314.964,22.118L314.964,24.319L317.565,24.319L317.565,25.339L314.964,25.339L314.964,27.56L309.183,27.56L309.183,28.781L316.224,28.781L316.224,29.72L309.183,29.72L309.183,31.021ZM302.202,39.343L302.202,33.062L315.165,33.062L315.165,39.303L313.824,39.303L313.824,38.643L303.502,38.643L303.502,39.343L302.202,39.343ZM313.824,34.042L303.502,34.042L303.502,35.362L313.824,35.362L313.824,34.042ZM303.502,37.663L313.824,37.663L313.824,36.282L303.502,36.282L303.502,37.663ZM309.184,23.06L309.184,24.321L313.624,24.321L313.624,23.06L309.184,23.06ZM309.184,25.34L309.184,26.641L313.624,26.641L313.624,25.34L309.184,25.34Z" style="fill-rule:nonzero;"/>
            <path d="M349.665,28.581L341.243,28.581L341.243,36.982L348.585,36.982L348.585,38.323L332.682,38.323L332.682,36.982L339.843,36.982L339.843,28.581L331.541,28.581L331.541,27.24L339.843,27.24L339.843,20.759L341.663,20.879C341.643,21.02 341.523,21.119 341.243,21.159L341.243,27.24L349.665,27.24L349.665,28.581Z" style="fill-rule:nonzero;"/>
        </g>
    </g>
    <path d="M235.859,48.399L238.872,48.399C238.872,50.715 238.769,54.012 238.562,58.286C238.355,62.561 238.253,65.702 238.253,67.712C238.253,73.762 240.454,76.786 244.858,76.786C247.355,76.786 249.744,75.809 252.023,73.85C254.302,71.895 256.342,68.946 258.145,65.007L260.731,66.28C258.8,70.659 256.483,73.967 253.78,76.207C251.076,78.447 248.102,79.566 244.858,79.566C243.441,79.566 242.179,79.38 241.073,79.005C239.965,78.634 238.954,78.015 238.04,77.153C237.125,76.29 236.424,75.067 235.936,73.483C235.447,71.899 235.202,69.976 235.202,67.71C235.202,65.753 235.305,62.636 235.511,58.362C235.743,53.548 235.859,50.228 235.859,48.399Z" style="fill-rule:nonzero;"/>
    <path d="M293.216,52.261L293.409,54.81C289.647,55.222 286.378,55.519 283.598,55.699C283.598,56.215 283.602,56.986 283.616,58.017C283.63,59.046 283.649,59.818 283.675,60.333L283.751,62.999C285.708,62.534 287.808,62.304 290.048,62.304C293.343,62.304 295.931,63.07 297.812,64.601C299.691,66.134 300.632,68.201 300.632,70.8C300.632,73.376 299.859,75.434 298.314,76.979C296.767,78.524 294.709,79.297 292.134,79.297C290.536,79.297 289.042,79.053 287.654,78.563L288.156,76.092C289.34,76.502 290.64,76.709 292.058,76.709C293.806,76.709 295.191,76.195 296.208,75.164C297.226,74.135 297.733,72.717 297.733,70.916C297.733,69.01 297.044,67.537 295.667,66.494C294.29,65.451 292.274,64.928 289.622,64.928C287.614,64.928 285.669,65.174 283.79,65.662C283.841,68.959 283.868,71.443 283.868,73.115C283.868,75.228 283.507,76.722 282.786,77.597C282.065,78.472 280.88,78.909 279.233,78.909C277.018,78.909 275.112,78.331 273.516,77.173C271.918,76.013 271.121,74.661 271.121,73.114C271.121,71.417 272.016,69.698 273.805,67.96C275.596,66.222 277.932,64.851 280.815,63.847C280.815,63.46 280.803,62.882 280.778,62.109C280.751,61.336 280.739,60.757 280.739,60.371L280.624,55.851C278.356,55.955 275.757,56.005 272.821,56.005L272.821,53.417C275.731,53.417 278.319,53.366 280.585,53.263C280.558,51.872 280.546,49.775 280.546,46.966L283.482,46.966C283.482,48.384 283.507,50.431 283.56,53.109C286.726,52.905 289.945,52.622 293.216,52.261ZM280.855,66.667C278.822,67.519 277.187,68.528 275.951,69.7C274.715,70.872 274.097,71.971 274.097,73C274.097,73.85 274.566,74.617 275.507,75.299C276.446,75.983 277.56,76.322 278.847,76.322C279.62,76.322 280.159,76.115 280.468,75.705C280.779,75.293 280.933,74.43 280.933,73.115C280.933,71.702 280.906,69.552 280.855,66.667ZM295.07,53.497L297.117,51.72C299.305,53.909 301.314,56.138 303.14,58.404L301.017,60.064C299.343,57.978 297.361,55.788 295.07,53.497Z" style="fill-rule:nonzero;"/>
    <path d="M318.978,57.782C316.273,58.042 313.892,58.286 311.832,58.518L311.678,55.93C313.893,55.672 316.52,55.416 319.557,55.157C320.098,52.401 320.522,49.583 320.832,46.698L323.652,46.93C323.394,49.633 323.007,52.313 322.494,54.963C323.885,54.887 325.043,54.848 325.969,54.848C327.615,54.848 328.854,54.918 329.676,55.059C330.502,55.202 331.184,55.588 331.723,56.219C332.266,56.85 332.6,57.662 332.729,58.653C332.858,59.645 332.922,61.12 332.922,63.075C332.922,67.942 332.168,71.799 330.662,74.643C329.156,77.489 327.385,78.911 325.35,78.911C323.676,78.911 321.618,77.919 319.172,75.936L320.561,73.504C322.622,75.229 324.192,76.092 325.276,76.092C326.458,76.092 327.547,74.887 328.538,72.481C329.53,70.073 330.026,66.771 330.026,62.573C330.026,61.288 329.987,60.333 329.909,59.716C329.831,59.097 329.634,58.595 329.311,58.208C328.989,57.823 328.596,57.591 328.133,57.513C327.67,57.437 326.936,57.398 325.93,57.398C325.082,57.398 323.756,57.462 321.953,57.591C320.33,64.853 317.691,72.024 314.035,79.102L311.484,78.022C314.882,71.43 317.38,64.685 318.978,57.782ZM334.273,53.228L336.898,52.107C339.861,57.513 342.435,63.72 344.623,70.724L341.959,71.61C339.822,64.892 337.259,58.765 334.273,53.228Z" style="fill-rule:nonzero;"/>
    <path d="M373.089,47.935L375.948,47.974C375.87,51.011 375.844,53.638 375.87,55.853C378.186,55.648 380.712,55.39 383.44,55.08L383.672,57.592C380.762,57.926 378.174,58.184 375.908,58.365L375.908,59.447L375.947,64.892C375.947,67.8 374.736,69.255 372.314,69.255C370.513,69.255 367.912,68.689 364.515,67.558L365.286,64.968C368.222,65.972 370.37,66.476 371.737,66.476C372.198,66.476 372.54,66.339 372.76,66.07C372.979,65.799 373.086,65.189 373.086,64.234L373.086,59.021C373.086,58.968 373.08,58.906 373.068,58.826C373.052,58.75 373.047,58.685 373.047,58.635C368.877,58.969 364.526,59.24 359.994,59.447C360.07,63.308 360.107,66.965 360.107,70.414C360.107,71.496 360.16,72.347 360.263,72.964C360.366,73.581 360.558,74.136 360.841,74.624C361.124,75.114 361.597,75.46 362.251,75.667C362.909,75.874 363.694,76.028 364.608,76.132C365.52,76.234 366.762,76.284 368.335,76.284C371.837,76.284 375.364,76.028 378.917,75.513L379.188,78.14C375.327,78.656 371.668,78.911 368.219,78.911C363.711,78.911 360.739,78.352 359.297,77.231C357.852,76.112 357.133,73.838 357.133,70.413C357.133,67.12 357.094,63.499 357.018,59.561C354.778,59.637 352.717,59.676 350.838,59.676L350.838,57.164C352.664,57.164 354.699,57.127 356.94,57.049C356.915,56.252 356.883,55.022 356.844,53.361C356.805,51.699 356.772,50.457 356.748,49.632L359.721,49.593C359.744,50.392 359.778,51.622 359.817,53.282C359.856,54.942 359.889,56.159 359.915,56.932C363.724,56.752 368.103,56.467 373.046,56.082C372.999,53.124 373.013,50.407 373.089,47.935ZM376.952,46.159L379.192,45.347C380.067,47.253 380.917,49.275 381.741,51.411L379.501,52.145C378.986,50.808 378.136,48.81 376.952,46.159ZM381.665,45.501L383.981,44.73C385.192,47.406 386.067,49.468 386.608,50.912L384.29,51.642C383.519,49.687 382.644,47.64 381.665,45.501Z" style="fill-rule:nonzero;"/>
    <path d="M429.431,67.718L429.431,69.263L426.611,69.263L426.611,76.563L424.757,76.563L424.757,74.438L413.556,74.438L413.556,77.102C413.556,78.416 413.329,79.227 412.88,79.536C412.429,79.845 411.276,80.001 409.423,80.001C408.341,80.001 406.538,79.935 404.015,79.806L404.015,78.261C406.513,78.365 408.265,78.417 409.269,78.417C410.451,78.417 411.142,78.372 411.333,78.28C411.528,78.19 411.624,77.839 411.624,77.218L411.624,74.439L397.526,74.439L397.526,72.894L411.624,72.894L411.624,69.264L395.749,69.264L395.749,67.719L411.624,67.719L411.624,64.164L397.526,64.164L397.526,62.658L411.624,62.658L411.624,59.994L399.108,59.994L399.108,53.273L411.624,53.273L411.624,50.531L396.136,50.531L396.136,48.986L411.624,48.986L411.624,46.32L413.556,46.32L413.556,48.986L429.044,48.986L429.044,50.531L413.556,50.531L413.556,53.273L426.07,53.273L426.07,59.994L413.556,59.994L413.556,62.658L426.611,62.658L426.611,67.719L429.431,67.719L429.431,67.718ZM400.962,58.485L411.624,58.485L411.624,54.778L400.962,54.778L400.962,58.485ZM413.556,54.778L413.556,58.485L424.214,58.485L424.214,54.778L413.556,54.778ZM413.556,64.163L413.556,67.718L424.757,67.718L424.757,64.163L413.556,64.163ZM413.556,69.263L413.556,72.893L424.757,72.893L424.757,69.263L413.556,69.263Z" style="fill-rule:nonzero;"/>
    <path d="M440.591,78.184C441.263,78.184 441.653,78.069 441.771,77.838C441.886,77.604 441.945,76.807 441.945,75.442L441.945,63.661C439.935,68.169 437.541,72.03 434.759,75.25L433.755,73.703C436.819,70.254 439.421,65.928 441.558,60.727L434.413,60.727L434.413,59.065L442.677,59.065C440.489,56.542 438.482,54.405 436.652,52.653L437.81,51.534C438.97,52.641 440.4,54.122 442.099,55.975C444.185,54.096 446.05,52.061 447.699,49.871L435.148,49.871L435.148,48.287L449.746,48.287L449.746,49.871C447.789,52.551 445.613,54.996 443.219,57.211L444.801,59.065L450.057,59.065L450.057,60.727C448.897,63.532 447.493,66.032 445.846,68.221L444.455,67.33C445.924,65.426 447.197,63.225 448.279,60.726L443.72,60.726L443.72,75.401C443.72,77.358 443.574,78.581 443.277,79.071C442.98,79.559 442.228,79.803 441.019,79.803C440.425,79.803 439.033,79.739 436.845,79.612L436.806,77.989C438.816,78.12 440.077,78.184 440.591,78.184ZM457.548,68.065C456.028,73.523 452.36,77.502 446.54,80L445.651,78.57C448.381,77.359 450.557,75.904 452.178,74.207C453.801,72.506 454.959,70.459 455.655,68.065L448.2,68.065L448.2,66.403L456.042,66.403C456.3,65.143 456.44,63.842 456.468,62.503L458.361,62.503C458.334,63.792 458.193,65.091 457.935,66.403L466.82,66.403C466.82,70.061 466.683,72.803 466.414,74.631C466.143,76.457 465.697,77.721 465.08,78.416C464.463,79.111 463.549,79.459 462.34,79.459C461.076,79.459 459.363,79.342 457.203,79.111L457.203,77.488C459.183,77.72 460.767,77.838 461.951,77.838C462.724,77.838 463.31,77.617 463.709,77.178C464.107,76.742 464.424,75.809 464.656,74.379C464.886,72.949 465.002,70.846 465.002,68.065L457.548,68.065ZM449.089,57.79L447.777,56.747C450.713,53.788 452.9,50.309 454.343,46.319L456.003,46.667C455.694,47.517 455.347,48.366 454.96,49.216L468.208,49.216L468.208,50.839L465.929,50.839C464.872,53.777 463.148,56.4 460.755,58.718C462.943,60.521 465.556,61.989 468.595,63.12L467.978,64.743C464.757,63.585 461.925,61.95 459.48,59.839C456.853,61.976 453.687,63.61 449.978,64.743L449.439,63.198C452.785,62.194 455.72,60.688 458.244,58.68C456.287,56.721 454.705,54.52 453.492,52.073C452.179,54.263 450.712,56.169 449.089,57.79ZM459.519,57.56C461.656,55.55 463.187,53.312 464.115,50.839L454.767,50.839C455.925,53.388 457.509,55.628 459.519,57.56Z" style="fill-rule:nonzero;"/>
    <path d="M475.509,54.354L488.872,54.354L488.872,66.557L477.324,66.557C477.246,72.066 476.332,76.562 474.584,80.039L472.961,79.187C474.658,75.712 475.51,70.986 475.51,65.014L475.51,54.354L475.509,54.354ZM473.423,50.298L473.423,48.638L489.876,48.638L489.876,50.298L473.423,50.298ZM477.324,64.976L487.174,64.976L487.174,55.976L477.324,55.976L477.324,64.976ZM493.392,60.226C493.083,64.99 492.456,68.787 491.519,71.618C490.578,74.452 489.144,77.052 487.212,79.421L485.821,78.3C487.341,76.421 488.51,74.464 489.337,72.429C490.161,70.396 490.79,67.578 491.23,63.972C491.666,60.367 491.886,55.642 491.886,49.796C497.265,49.358 501.747,48.484 505.327,47.169L505.829,48.829C502.532,50.04 498.475,50.876 493.661,51.341C493.661,53.736 493.597,56.13 493.468,58.525L506.988,58.525L506.988,60.226L502.236,60.226L502.236,80.077L500.422,80.077L500.422,60.226L493.392,60.226Z" style="fill-rule:nonzero;"/>
    <path d="M208.507,64.94C208.507,64.94 192.07,10.968 126.352,47.808C74.956,76.619 62.108,47.419 62.108,47.419C62.108,47.419 78.154,95.892 133.75,69.789C133.75,69.79 193.636,36.052 208.507,64.94Z" style="fill:rgb(202,179,213);fill-opacity:0.7;fill-rule:nonzero;"/>
    <path d="M167.066,53.227C167.066,53.227 150.629,-0.746 84.911,36.094C33.515,64.907 20.667,35.705 20.667,35.705C20.667,35.705 36.713,84.18 92.308,58.076C92.308,58.076 152.194,24.337 167.066,53.227Z" style="fill:rgb(202,179,213);fill-opacity:0.4;fill-rule:nonzero;"/>
</svg>
