<?xml version="1.0" encoding="utf-8"?>
<!-- Generator: Adobe Illustrator 15.0.0, SVG Export Plug-In  -->
<!DOCTYPE svg PUBLIC "-//W3C//DTD SVG 1.1//EN" "http://www.w3.org/Graphics/SVG/1.1/DTD/svg11.dtd" [
	<!ENTITY ns_flows "http://ns.adobe.com/Flows/1.0/">
]>
<svg version="1.1"
	 xmlns="http://www.w3.org/2000/svg" xmlns:xlink="http://www.w3.org/1999/xlink" xmlns:a="http://ns.adobe.com/AdobeSVGViewerExtensions/3.0/"
	 x="0px" y="0px" width="528px" height="100px" viewBox="-0.824 -0.916 528 100"
	 overflow="visible" enable-background="new -0.824 -0.916 528 100" xml:space="preserve">
<defs>
</defs>
<rect fill="#FFFFFF" width="526.825" height="99.004"/>
<g>
	<g>
		<path d="M240.619,20.443c-0.04,0.1-0.2,0.18-0.44,0.14c-1.16,1.461-3.241,3.361-5.021,4.621c-0.16-0.3-0.54-0.82-0.78-1.08
			c1.68-1.101,3.661-2.881,4.681-4.341L240.619,20.443z M237.559,38.367v-8.802c-0.76,0.84-1.521,1.62-2.28,2.28
			c-0.18-0.26-0.6-0.8-0.86-1.04c1.9-1.58,4.101-4.201,5.481-6.701l1.561,0.64c-0.06,0.12-0.22,0.2-0.46,0.16
			c-0.6,1-1.3,2.021-2.061,3.001l0.36,0.12c-0.04,0.119-0.16,0.22-0.4,0.26v10.082H237.559z M253.022,26.864v1.301h-3.181v8.462
			c0,1.68-0.64,1.72-4.681,1.72c-0.06-0.38-0.24-0.92-0.44-1.32c0.88,0.021,1.7,0.04,2.32,0.04c1.3,0,1.44,0,1.44-0.46v-8.441
			h-6.961v-1.301H253.022z M252.262,21.043v1.28h-9.982v-1.28H252.262z"/>
		<path d="M285.062,24.824h-1.641c-0.58,3.32-1.48,6.062-2.86,8.262c1.18,1.841,2.7,3.28,4.641,4.161
			c-0.32,0.26-0.72,0.76-0.94,1.14c-1.86-0.939-3.36-2.36-4.521-4.141c-1.4,1.761-3.221,3.141-5.602,4.161
			c-0.14-0.32-0.479-0.86-0.7-1.141c2.4-0.979,4.221-2.36,5.562-4.24c-0.92-1.701-1.601-3.682-2.141-5.861
			c-0.46,1.04-0.98,1.96-1.561,2.721c-0.24-0.24-0.72-0.681-1.02-0.881c0.18-0.24,0.359-0.479,0.52-0.76h-2.78v5.461
			c1.16-0.26,2.36-0.521,3.541-0.8l0.119,1.26c-3.12,0.78-6.461,1.58-8.521,2.061c-0.02,0.16-0.14,0.26-0.28,0.3l-0.54-1.58
			l1.3-0.26v-9.122l1.601,0.1c-0.021,0.141-0.12,0.24-0.381,0.28v8.462l1.881-0.4V22.384h-4.081v-1.261h8.942v1.261h-3.581v4.621
			h2.82v1.18c1.28-2.1,2.261-5.241,2.86-8.401l1.721,0.38c-0.06,0.141-0.18,0.22-0.46,0.22c-0.22,1.061-0.48,2.141-0.78,3.181h6.882
			V24.824z M277.78,24.824l-0.12,0.36c0.48,2.44,1.161,4.681,2.141,6.581c1.08-1.9,1.78-4.201,2.261-6.941H277.78z"/>
		<path d="M308.36,30.105h8.481v1.021h-18.104v-1.021h8.281v-1.301h-6.881v-0.939h6.881v-1.221h-6.261v-0.92h6.261v-1.301h-8.222
			v-1.02h8.222v-1.261h-6.041v-0.94h6.041v-1.46l1.74,0.12c-0.02,0.14-0.12,0.22-0.399,0.26v1.08h5.781v2.201h2.601v1.02h-2.601
			v2.221h-5.781v1.221h7.041v0.939h-7.041V30.105z M301.378,38.427v-6.281h12.963v6.241H313v-0.66h-10.322v0.7H301.378z M313,33.126
			h-10.322v1.32H313V33.126z M302.678,36.747H313v-1.381h-10.322V36.747z M308.36,22.144v1.261h4.44v-1.261H308.36z M308.36,24.424
			v1.301h4.44v-1.301H308.36z"/>
		<path d="M348.841,27.665h-8.422v8.401h7.342v1.341h-15.903v-1.341h7.161v-8.401h-8.302v-1.341h8.302v-6.481l1.82,0.12
			c-0.02,0.141-0.14,0.24-0.42,0.28v6.081h8.422V27.665z"/>
	</g>
</g>
<path d="M235.035,47.483h3.013c0,2.316-0.103,5.613-0.31,9.887c-0.207,4.275-0.309,7.416-0.309,9.426
	c0,6.05,2.201,9.074,6.605,9.074c2.497,0,4.886-0.977,7.165-2.936c2.279-1.955,4.319-4.904,6.122-8.843l2.586,1.273
	c-1.931,4.379-4.248,7.687-6.951,9.927c-2.704,2.24-5.678,3.359-8.922,3.359c-1.417,0-2.679-0.186-3.785-0.561
	c-1.108-0.371-2.119-0.99-3.033-1.852c-0.915-0.863-1.616-2.086-2.104-3.67c-0.489-1.584-0.734-3.507-0.734-5.773
	c0-1.957,0.103-5.074,0.309-9.348C234.919,52.632,235.035,49.312,235.035,47.483z"/>
<path d="M292.392,51.345l0.193,2.549c-3.762,0.412-7.031,0.709-9.811,0.889c0,0.516,0.004,1.287,0.018,2.318
	c0.014,1.029,0.033,1.801,0.059,2.316l0.076,2.666c1.957-0.465,4.057-0.695,6.297-0.695c3.295,0,5.883,0.766,7.764,2.297
	c1.879,1.533,2.82,3.6,2.82,6.199c0,2.576-0.773,4.634-2.318,6.179c-1.547,1.545-3.605,2.318-6.18,2.318
	c-1.598,0-3.092-0.244-4.48-0.734l0.502-2.471c1.184,0.41,2.484,0.617,3.902,0.617c1.748,0,3.133-0.514,4.15-1.545
	c1.018-1.029,1.525-2.447,1.525-4.248c0-1.906-0.689-3.379-2.066-4.422s-3.393-1.566-6.045-1.566c-2.008,0-3.953,0.246-5.832,0.734
	c0.051,3.297,0.078,5.781,0.078,7.453c0,2.113-0.361,3.607-1.082,4.482s-1.906,1.312-3.553,1.312c-2.215,0-4.121-0.578-5.717-1.736
	c-1.598-1.16-2.395-2.512-2.395-4.059c0-1.697,0.895-3.416,2.684-5.154c1.791-1.738,4.127-3.109,7.01-4.113
	c0-0.387-0.012-0.965-0.037-1.738c-0.027-0.773-0.039-1.352-0.039-1.738l-0.115-4.52c-2.268,0.104-4.867,0.154-7.803,0.154v-2.588
	c2.91,0,5.498-0.051,7.764-0.154c-0.027-1.391-0.039-3.488-0.039-6.297h2.936c0,1.418,0.025,3.465,0.078,6.143
	C285.902,51.989,289.121,51.706,292.392,51.345z M280.031,65.751c-2.033,0.852-3.668,1.861-4.904,3.033s-1.854,2.271-1.854,3.3
	c0,0.85,0.469,1.617,1.41,2.299c0.939,0.684,2.053,1.023,3.34,1.023c0.773,0,1.312-0.207,1.621-0.617
	c0.311-0.412,0.465-1.275,0.465-2.59C280.109,70.786,280.082,68.636,280.031,65.751z M294.246,52.581l2.047-1.777
	c2.188,2.189,4.197,4.418,6.023,6.684l-2.123,1.66C298.519,57.062,296.537,54.872,294.246,52.581z"/>
<path d="M318.154,56.866c-2.705,0.26-5.086,0.504-7.146,0.736l-0.154-2.588c2.215-0.258,4.842-0.514,7.879-0.773
	c0.541-2.756,0.965-5.574,1.275-8.459l2.82,0.232c-0.258,2.703-0.645,5.383-1.158,8.033c1.391-0.076,2.549-0.115,3.475-0.115
	c1.646,0,2.885,0.07,3.707,0.211c0.826,0.143,1.508,0.529,2.047,1.16c0.543,0.631,0.877,1.443,1.006,2.434
	c0.129,0.992,0.193,2.467,0.193,4.422c0,4.867-0.754,8.724-2.26,11.568c-1.506,2.846-3.277,4.268-5.312,4.268
	c-1.674,0-3.732-0.992-6.178-2.975l1.389-2.432c2.061,1.725,3.631,2.588,4.715,2.588c1.182,0,2.271-1.205,3.262-3.611
	c0.992-2.408,1.488-5.71,1.488-9.908c0-1.285-0.039-2.24-0.117-2.857c-0.078-0.619-0.275-1.121-0.598-1.508
	c-0.322-0.385-0.715-0.617-1.178-0.695c-0.463-0.076-1.197-0.115-2.203-0.115c-0.848,0-2.174,0.064-3.977,0.193
	c-1.623,7.262-4.262,14.433-7.918,21.511l-2.551-1.08C314.058,70.514,316.556,63.769,318.154,56.866z M333.449,52.312l2.625-1.121
	c2.963,5.406,5.537,11.613,7.725,18.617l-2.664,0.886C338.998,63.976,336.435,57.849,333.449,52.312z"/>
<path d="M372.265,47.019l2.859,0.039c-0.078,3.037-0.104,5.664-0.078,7.879c2.316-0.205,4.842-0.463,7.57-0.773l0.232,2.512
	c-2.91,0.334-5.498,0.592-7.764,0.773v1.082l0.039,5.445c0,2.908-1.211,4.363-3.633,4.363c-1.801,0-4.402-0.566-7.799-1.697
	l0.771-2.59c2.936,1.004,5.084,1.508,6.451,1.508c0.461,0,0.803-0.137,1.023-0.406c0.219-0.271,0.326-0.881,0.326-1.836v-5.213
	c0-0.053-0.006-0.115-0.018-0.195c-0.016-0.076-0.021-0.141-0.021-0.191c-4.17,0.334-8.521,0.605-13.053,0.812
	c0.076,3.861,0.113,7.518,0.113,10.967c0,1.082,0.053,1.933,0.156,2.55s0.295,1.172,0.578,1.66c0.283,0.49,0.756,0.836,1.41,1.043
	c0.658,0.207,1.443,0.361,2.357,0.465c0.912,0.102,2.154,0.152,3.727,0.152c3.502,0,7.029-0.256,10.582-0.771l0.271,2.627
	c-3.861,0.516-7.52,0.771-10.969,0.771c-4.508,0-7.48-0.559-8.922-1.68c-1.445-1.119-2.164-3.393-2.164-6.818
	c0-3.293-0.039-6.914-0.115-10.852c-2.24,0.076-4.301,0.115-6.18,0.115v-2.512c1.826,0,3.861-0.037,6.102-0.115
	c-0.025-0.797-0.057-2.027-0.096-3.688c-0.039-1.662-0.072-2.904-0.096-3.729l2.973-0.039c0.023,0.799,0.057,2.029,0.096,3.689
	s0.072,2.877,0.098,3.65c3.809-0.18,8.188-0.465,13.131-0.85C372.175,52.208,372.189,49.491,372.265,47.019z M376.128,45.243
	l2.24-0.812c0.875,1.906,1.725,3.928,2.549,6.064l-2.24,0.734C378.162,49.892,377.312,47.894,376.128,45.243z M380.841,44.585
	l2.316-0.771c1.211,2.676,2.086,4.738,2.627,6.182l-2.318,0.73C382.695,48.771,381.82,46.724,380.841,44.585z"/>
<path d="M428.607,66.802v1.545h-2.82v7.3h-1.854v-2.125h-11.201v2.664c0,1.314-0.227,2.125-0.676,2.434
	c-0.451,0.309-1.604,0.465-3.457,0.465c-1.082,0-2.885-0.066-5.408-0.195v-1.545c2.498,0.104,4.25,0.156,5.254,0.156
	c1.182,0,1.873-0.045,2.064-0.137c0.195-0.09,0.291-0.441,0.291-1.062v-2.779h-14.098v-1.545H410.8v-3.63h-15.875v-1.545H410.8
	v-3.555h-14.098v-1.506H410.8v-2.664h-10.662h-1.854v-6.721H410.8v-2.742h-15.488v-1.545H410.8v-2.666h1.932v2.666h15.488v1.545
	h-15.488v2.742h12.514v6.721h-12.514v2.664h13.055v5.061H428.607z M400.138,57.569H410.8v-3.707h-10.662V57.569z M412.732,53.862
	v3.707h10.658v-3.707H412.732z M412.732,63.247v3.555h11.201v-3.555H412.732z M412.732,68.347v3.63h11.201v-3.63H412.732z"/>
<path d="M439.767,77.268c0.672,0,1.062-0.115,1.18-0.346c0.115-0.234,0.174-1.031,0.174-2.396V62.745
	c-2.01,4.508-4.404,8.369-7.186,11.589l-1.004-1.547c3.064-3.449,5.666-7.775,7.803-12.976h-7.145v-1.662h8.264
	c-2.188-2.523-4.195-4.66-6.025-6.412l1.158-1.119c1.16,1.107,2.59,2.588,4.289,4.441c2.086-1.879,3.951-3.914,5.6-6.104h-12.551
	v-1.584h14.598v1.584c-1.957,2.68-4.133,5.125-6.527,7.34l1.582,1.854h5.256v1.662c-1.16,2.805-2.564,5.305-4.211,7.494
	l-1.391-0.891c1.469-1.904,2.742-4.105,3.824-6.604h-4.559v14.675c0,1.957-0.146,3.18-0.443,3.67
	c-0.297,0.488-1.049,0.732-2.258,0.732c-0.594,0-1.986-0.064-4.174-0.191l-0.039-1.623
	C437.992,77.204,439.253,77.268,439.767,77.268z M456.724,67.149c-1.52,5.458-5.188,9.437-11.008,11.935l-0.889-1.43
	c2.73-1.211,4.906-2.666,6.527-4.363c1.623-1.701,2.781-3.748,3.477-6.142h-7.455v-1.662h7.842c0.258-1.26,0.398-2.561,0.426-3.9
	h1.893c-0.027,1.289-0.168,2.588-0.426,3.9h8.885c0,3.658-0.137,6.4-0.406,8.228c-0.271,1.826-0.717,3.09-1.334,3.785
	s-1.531,1.043-2.74,1.043c-1.264,0-2.977-0.117-5.137-0.348v-1.623c1.98,0.232,3.564,0.35,4.748,0.35
	c0.773,0,1.359-0.221,1.758-0.66c0.398-0.436,0.715-1.369,0.947-2.799c0.23-1.43,0.346-3.533,0.346-6.314H456.724z M448.265,56.874
	l-1.312-1.043c2.936-2.959,5.123-6.438,6.566-10.428l1.66,0.348c-0.309,0.85-0.656,1.699-1.043,2.549h13.248v1.623h-2.279
	c-1.057,2.938-2.781,5.561-5.174,7.879c2.188,1.803,4.801,3.271,7.84,4.402l-0.617,1.623c-3.221-1.158-6.053-2.793-8.498-4.904
	c-2.627,2.137-5.793,3.771-9.502,4.904l-0.539-1.545c3.346-1.004,6.281-2.51,8.805-4.518c-1.957-1.959-3.539-4.16-4.752-6.607
	C451.355,53.347,449.888,55.253,448.265,56.874z M458.695,56.644c2.137-2.01,3.668-4.248,4.596-6.721h-9.348
	C455.101,52.472,456.685,54.712,458.695,56.644z"/>
<path d="M474.685,53.438h13.363v12.203H476.5c-0.078,5.509-0.992,10.005-2.74,13.482l-1.623-0.852
	c1.697-3.475,2.549-8.201,2.549-14.173V53.438z M472.599,49.382v-1.66h16.453v1.66H472.599z M476.5,64.06h9.85v-9h-9.85V64.06z
	 M492.568,59.31c-0.309,4.764-0.936,8.561-1.873,11.392c-0.941,2.834-2.375,5.434-4.307,7.803l-1.391-1.121
	c1.52-1.879,2.689-3.836,3.516-5.871c0.824-2.033,1.453-4.851,1.893-8.457c0.436-3.605,0.656-8.33,0.656-14.176
	c5.379-0.438,9.861-1.312,13.441-2.627l0.502,1.66c-3.297,1.211-7.354,2.047-12.168,2.512c0,2.395-0.064,4.789-0.193,7.184h13.52
	v1.701h-4.752v19.851h-1.814V59.31H492.568z"/>
<path opacity="0.7" fill="#CAB3D5" d="M207.683,64.024c0,0-16.437-53.972-82.155-17.132c-51.396,28.811-64.244-0.389-64.244-0.389
	s16.046,48.473,71.642,22.37C132.926,68.874,192.812,35.136,207.683,64.024z"/>
<path opacity="0.4" fill="#CAB3D5" d="M166.242,52.311c0,0-16.437-53.973-82.155-17.133c-51.396,28.813-64.244-0.389-64.244-0.389
	S35.889,83.264,91.484,57.16C91.484,57.16,151.37,23.421,166.242,52.311z"/>
</svg>
