<?xml version="1.0" encoding="utf-8"?>
<!-- Generator: Adobe Illustrator 15.0.0, SVG Export Plug-In  -->
<!DOCTYPE svg PUBLIC "-//W3C//DTD SVG 1.1//EN" "http://www.w3.org/Graphics/SVG/1.1/DTD/svg11.dtd" [
	<!ENTITY ns_flows "http://ns.adobe.com/Flows/1.0/">
]>
<svg version="1.1"
	 xmlns="http://www.w3.org/2000/svg" xmlns:xlink="http://www.w3.org/1999/xlink" xmlns:a="http://ns.adobe.com/AdobeSVGViewerExtensions/3.0/"
	 x="0px" y="0px" width="404px" height="290px" viewBox="-0.934 -0.407 404 290"
	 overflow="visible" enable-background="new -0.934 -0.407 404 290" xml:space="preserve">
<defs>
</defs>
<rect fill="#FFFFFF" width="403.002" height="289.087"/>
<path opacity="0.7" fill="#CAB3D5" d="M357.647,114.679c0,0-27.326-89.732-136.586-28.483
	c-85.448,47.902-106.809-0.647-106.809-0.647s26.678,80.593,119.109,37.193C233.361,122.742,332.923,66.649,357.647,114.679z"/>
<path opacity="0.4" fill="#CAB3D5" d="M288.75,95.204c0,0-27.327-89.732-136.586-28.483c-85.448,47.902-106.809-0.647-106.809-0.647
	s26.678,80.593,119.109,37.193C164.463,103.266,264.024,47.174,288.75,95.204z"/>
<g>
	<g>
		<path d="M140.313,166.442c-0.048,0.12-0.24,0.217-0.528,0.168c-1.392,1.752-3.888,4.033-6.024,5.545
			c-0.192-0.36-0.648-0.984-0.936-1.297c2.016-1.32,4.392-3.455,5.616-5.208L140.313,166.442z M136.641,187.948v-10.561
			c-0.912,1.008-1.824,1.943-2.736,2.736c-0.216-0.312-0.72-0.961-1.032-1.248c2.28-1.896,4.92-5.041,6.577-8.041l1.872,0.768
			c-0.072,0.145-0.264,0.24-0.552,0.192c-0.72,1.2-1.561,2.425-2.473,3.601l0.432,0.144c-0.048,0.144-0.192,0.265-0.48,0.312v12.097
			H136.641z M155.194,174.147v1.561h-3.816v10.152c0,2.016-0.768,2.064-5.617,2.064c-0.072-0.457-0.288-1.104-0.528-1.584
			c1.056,0.023,2.04,0.047,2.784,0.047c1.56,0,1.728,0,1.728-0.551v-10.129h-8.353v-1.561H155.194z M154.282,167.163v1.535h-11.977
			v-1.535H154.282z"/>
		<path d="M193.642,171.699h-1.968c-0.696,3.983-1.776,7.272-3.432,9.913c1.416,2.207,3.24,3.936,5.568,4.992
			c-0.384,0.312-0.864,0.912-1.128,1.367c-2.232-1.127-4.033-2.832-5.425-4.968c-1.68,2.112-3.864,3.769-6.721,4.993
			c-0.168-0.385-0.576-1.033-0.84-1.369c2.88-1.176,5.064-2.832,6.672-5.088c-1.104-2.041-1.92-4.416-2.568-7.033
			c-0.552,1.248-1.176,2.353-1.872,3.265c-0.288-0.288-0.864-0.815-1.224-1.056c0.216-0.289,0.432-0.576,0.624-0.912h-3.336v6.553
			c1.392-0.312,2.832-0.625,4.249-0.961l0.144,1.512c-3.744,0.938-7.752,1.896-10.225,2.473c-0.024,0.192-0.168,0.312-0.336,0.36
			l-0.648-1.896l1.56-0.312v-10.945l1.92,0.12c-0.024,0.168-0.144,0.288-0.456,0.336v10.153l2.256-0.48v-13.945h-4.896v-1.512
			h10.729v1.512h-4.296v5.545h3.384v1.416c1.536-2.521,2.712-6.289,3.432-10.081l2.064,0.456c-0.072,0.168-0.216,0.264-0.552,0.264
			c-0.264,1.272-0.576,2.568-0.936,3.816h8.257V171.699z M184.905,171.699l-0.144,0.432c0.576,2.929,1.392,5.616,2.568,7.897
			c1.296-2.281,2.136-5.041,2.712-8.329H184.905z"/>
		<path d="M221.6,178.036h10.178v1.224h-21.723v-1.224h9.938v-1.561h-8.257v-1.129h8.257v-1.463h-7.513v-1.104h7.513v-1.561h-9.865
			v-1.224h9.865v-1.512h-7.249v-1.129h7.249v-1.752l2.088,0.145c-0.024,0.168-0.145,0.264-0.48,0.312v1.296h6.937v2.641h3.121v1.224
			h-3.121v2.665H221.6v1.463h8.449v1.129H221.6V178.036z M213.224,188.021v-7.537h15.553v7.488h-1.607v-0.791h-12.386v0.84H213.224z
			 M227.169,181.659h-12.386v1.585h12.386V181.659z M214.783,186.005h12.386v-1.656h-12.386V186.005z M221.6,168.483v1.512h5.329
			v-1.512H221.6z M221.6,171.219v1.561h5.329v-1.561H221.6z"/>
		<path d="M270.178,175.107h-10.105v10.081h8.809v1.607H249.8v-1.607h8.593v-10.081h-9.961v-1.608h9.961v-7.776l2.184,0.144
			c-0.023,0.168-0.168,0.288-0.504,0.336v7.297h10.105V175.107z"/>
	</g>
</g>
<path d="M53.082,209.263h3.307c0,2.543-0.113,6.16-0.34,10.852s-0.339,8.139-0.339,10.344c0,6.641,2.416,9.96,7.249,9.96
	c2.74,0,5.362-1.073,7.863-3.222c2.501-2.146,4.74-5.383,6.719-9.706l2.839,1.398c-2.119,4.804-4.662,8.435-7.629,10.894
	c-2.968,2.459-6.231,3.688-9.792,3.688c-1.555,0-2.94-0.206-4.154-0.615c-1.216-0.409-2.325-1.089-3.328-2.034
	c-1.004-0.947-1.773-2.289-2.31-4.027c-0.537-1.738-0.806-3.85-0.806-6.336c0-2.148,0.112-5.568,0.339-10.26
	C52.955,214.914,53.082,211.269,53.082,209.263z"/>
<path d="M116.03,213.501l0.212,2.797c-4.127,0.453-7.716,0.777-10.767,0.977c0,0.564,0.006,1.412,0.021,2.543
	c0.014,1.131,0.035,1.978,0.063,2.543l0.085,2.926c2.147-0.51,4.451-0.764,6.909-0.764c3.617,0,6.457,0.841,8.521,2.521
	c2.062,1.682,3.095,3.95,3.095,6.804c0,2.827-0.849,5.087-2.543,6.783c-1.697,1.694-3.958,2.543-6.783,2.543
	c-1.753,0-3.392-0.269-4.917-0.806l0.551-2.713c1.3,0.452,2.728,0.678,4.282,0.678c1.92,0,3.439-0.564,4.556-1.695
	c1.116-1.129,1.674-2.685,1.674-4.662c0-2.092-0.756-3.709-2.267-4.854c-1.512-1.145-3.724-1.718-6.634-1.718
	c-2.205,0-4.339,0.269-6.401,0.806c0.057,3.618,0.085,6.344,0.085,8.181c0,2.318-0.396,3.958-1.187,4.917
	c-0.792,0.961-2.092,1.441-3.9,1.441c-2.431,0-4.521-0.635-6.273-1.906s-2.628-2.756-2.628-4.452c0-1.864,0.981-3.751,2.946-5.659
	c1.964-1.906,4.528-3.411,7.693-4.514c0-0.424-0.015-1.059-0.042-1.908c-0.029-0.847-0.043-1.482-0.043-1.906l-0.127-4.961
	c-2.487,0.113-5.341,0.17-8.562,0.17v-2.84c3.193,0,6.033-0.057,8.521-0.169c-0.029-1.526-0.043-3.829-0.043-6.91h3.222
	c0,1.556,0.028,3.802,0.085,6.74C108.908,214.208,112.441,213.897,116.03,213.501z M102.464,229.312
	c-2.232,0.934-4.026,2.043-5.383,3.328c-1.356,1.287-2.034,2.494-2.034,3.624c0,0.933,0.515,1.774,1.547,2.522
	c1.031,0.75,2.253,1.123,3.667,1.123c0.848,0,1.44-0.227,1.779-0.678c0.34-0.451,0.509-1.399,0.509-2.841
	C102.549,234.838,102.521,232.478,102.464,229.312z M118.064,214.858l2.247-1.951c2.401,2.403,4.605,4.848,6.611,7.334l-2.331,1.822
	C122.754,219.774,120.579,217.373,118.064,214.858z"/>
<path d="M144.303,219.562c-2.968,0.282-5.582,0.552-7.843,0.806l-0.169-2.84c2.43-0.283,5.312-0.564,8.646-0.849
	c0.594-3.023,1.06-6.118,1.399-9.283l3.096,0.255c-0.284,2.967-0.707,5.906-1.272,8.816c1.526-0.084,2.798-0.127,3.815-0.127
	c1.807,0,3.164,0.079,4.068,0.233c0.905,0.156,1.654,0.579,2.246,1.271c0.595,0.692,0.961,1.583,1.104,2.671
	c0.142,1.088,0.211,2.707,0.211,4.854c0,5.342-0.826,9.574-2.479,12.695c-1.652,3.123-3.597,4.684-5.829,4.684
	c-1.837,0-4.097-1.088-6.781-3.264l1.525-2.67c2.261,1.894,3.984,2.84,5.173,2.84c1.298,0,2.493-1.321,3.58-3.963
	c1.089-2.643,1.634-6.268,1.634-10.873c0-1.412-0.043-2.459-0.128-3.137c-0.086-0.679-0.304-1.23-0.657-1.654
	c-0.354-0.423-0.783-0.678-1.292-0.763s-1.314-0.127-2.417-0.127c-0.932,0-2.388,0.071-4.366,0.212
	c-1.78,7.97-4.677,15.84-8.689,23.61l-2.798-1.187C139.809,234.541,142.55,227.137,144.303,219.562z M161.088,214.562l2.883-1.23
	c3.25,5.935,6.076,12.746,8.478,20.432l-2.924,0.975C167.178,227.362,164.367,220.638,161.088,214.562z"/>
<path d="M203.69,208.753l3.138,0.043c-0.086,3.334-0.113,6.217-0.086,8.646c2.543-0.225,5.313-0.508,8.309-0.848l0.255,2.756
	c-3.193,0.367-6.034,0.65-8.521,0.848v1.188l0.043,5.977c0,3.193-1.328,4.789-3.986,4.789c-1.978,0-4.832-0.621-8.561-1.863
	l0.847-2.841c3.223,1.102,5.581,1.653,7.081,1.653c0.508,0,0.882-0.148,1.123-0.445c0.24-0.297,0.359-0.967,0.359-2.014v-5.722
	c0-0.058-0.007-0.128-0.021-0.213c-0.016-0.085-0.022-0.155-0.022-0.212c-4.578,0.367-9.353,0.664-14.327,0.891
	c0.085,4.238,0.126,8.252,0.126,12.037c0,1.188,0.057,2.121,0.171,2.799c0.112,0.679,0.324,1.287,0.635,1.823
	s0.828,0.918,1.548,1.145c0.721,0.226,1.583,0.396,2.586,0.509c1.002,0.112,2.365,0.168,4.09,0.168
	c3.844,0,7.715-0.281,11.615-0.847l0.297,2.883c-4.237,0.565-8.252,0.847-12.038,0.847c-4.947,0-8.21-0.613-9.792-1.844
	c-1.585-1.229-2.375-3.723-2.375-7.482c0-3.615-0.042-7.587-0.126-11.91c-2.459,0.084-4.721,0.127-6.782,0.127v-2.756
	c2.005,0,4.237-0.041,6.697-0.127c-0.029-0.875-0.063-2.225-0.105-4.047c-0.043-1.823-0.079-3.188-0.106-4.092l3.264-0.042
	c0.026,0.877,0.062,2.226,0.105,4.048s0.079,3.158,0.105,4.006c4.182-0.197,8.986-0.509,14.413-0.932
	C203.592,214.448,203.605,211.466,203.69,208.753z M207.931,206.804l2.457-0.89c0.962,2.091,1.894,4.31,2.798,6.653l-2.458,0.807
	C210.161,211.905,209.229,209.714,207.931,206.804z M213.103,206.084l2.543-0.849c1.327,2.938,2.288,5.199,2.883,6.783l-2.546,0.804
	C215.137,210.675,214.176,208.43,213.103,206.084z"/>
<path d="M265.523,230.465v1.695h-3.095v8.013h-2.034v-2.332h-12.293v2.924c0,1.441-0.249,2.332-0.742,2.671
	c-0.495,0.34-1.76,0.509-3.794,0.509c-1.187,0-3.165-0.071-5.935-0.212v-1.696c2.74,0.113,4.663,0.17,5.766,0.17
	c1.298,0,2.055-0.049,2.266-0.148c0.214-0.099,0.32-0.486,0.32-1.165v-3.052H230.51v-1.695h15.473v-3.985h-17.424v-1.695h17.424
	v-3.9H230.51v-1.653h15.473v-2.924h-11.701h-2.034v-7.377h13.735v-3.01h-16.998v-1.695h16.998v-2.925h2.119v2.925H265.1v1.695
	h-16.998v3.01h13.733v7.377h-13.733v2.924h14.327v5.554H265.523z M234.281,220.333h11.701v-4.068h-11.701V220.333z M248.102,216.265
	v4.068H259.8v-4.068H248.102z M248.102,226.564v3.9h12.293v-3.9H248.102z M248.102,232.16v3.985h12.293v-3.985H248.102z"/>
<path d="M277.772,241.952c0.736,0,1.166-0.127,1.294-0.381c0.126-0.255,0.191-1.131,0.191-2.629v-12.93
	c-2.205,4.947-4.834,9.186-7.886,12.719l-1.103-1.696c3.364-3.786,6.218-8.534,8.563-14.243h-7.841v-1.822h9.069
	c-2.401-2.77-4.604-5.115-6.612-7.037l1.271-1.229c1.271,1.215,2.841,2.84,4.706,4.874c2.289-2.062,4.337-4.295,6.146-6.697h-13.775
	v-1.739h16.021v1.739c-2.147,2.938-4.535,5.624-7.164,8.054l1.737,2.035h5.767v1.822c-1.272,3.08-2.813,5.822-4.621,8.225
	l-1.525-0.977c1.611-2.09,3.009-4.506,4.197-7.248h-5.003v16.107c0,2.148-0.162,3.49-0.488,4.027
	c-0.324,0.537-1.15,0.806-2.478,0.806c-0.65,0-2.179-0.071-4.58-0.212l-0.043-1.781
	C275.823,241.882,277.208,241.952,277.772,241.952z M296.382,230.847c-1.667,5.99-5.693,10.357-12.08,13.098l-0.975-1.568
	c2.995-1.328,5.383-2.926,7.163-4.789c1.78-1.866,3.052-4.112,3.814-6.74h-8.181v-1.823h8.606c0.281-1.384,0.437-2.812,0.466-4.282
	h2.077c-0.029,1.414-0.185,2.84-0.466,4.282h9.749c0,4.013-0.148,7.022-0.445,9.028c-0.298,2.007-0.786,3.393-1.463,4.154
	c-0.678,0.764-1.682,1.145-3.009,1.145c-1.387,0-3.266-0.127-5.638-0.381v-1.78c2.174,0.255,3.913,0.382,5.212,0.382
	c0.849,0,1.492-0.24,1.929-0.722c0.438-0.479,0.785-1.505,1.04-3.073c0.254-1.568,0.38-3.879,0.38-6.93H296.382z M287.099,219.569
	l-1.44-1.144c3.221-3.249,5.622-7.064,7.206-11.445l1.823,0.382c-0.34,0.933-0.721,1.865-1.146,2.797h14.54v1.781h-2.502
	c-1.159,3.223-3.052,6.104-5.679,8.646c2.401,1.979,5.269,3.59,8.604,4.833l-0.678,1.78c-3.533-1.271-6.642-3.064-9.326-5.383
	c-2.883,2.346-6.357,4.14-10.429,5.383l-0.592-1.695c3.673-1.102,6.894-2.755,9.663-4.959c-2.146-2.147-3.884-4.564-5.214-7.249
	C290.49,215.699,288.879,217.79,287.099,219.569z M298.545,219.315c2.345-2.204,4.026-4.662,5.043-7.375H293.33
	C294.602,214.738,296.339,217.196,298.545,219.315z"/>
<path d="M316.094,215.798h14.667v13.396h-12.675c-0.086,6.047-1.089,10.979-3.009,14.794l-1.78-0.934
	c1.863-3.814,2.797-9,2.797-15.557V215.798z M313.806,211.347v-1.822h18.056v1.822H313.806z M318.086,227.454h10.81v-9.876h-10.81
	V227.454z M335.721,222.241c-0.34,5.229-1.026,9.396-2.057,12.505c-1.033,3.109-2.606,5.963-4.727,8.562l-1.525-1.229
	c1.667-2.062,2.952-4.211,3.857-6.443c0.904-2.232,1.596-5.326,2.077-9.283c0.479-3.956,0.72-9.141,0.72-15.557
	c5.905-0.48,10.823-1.441,14.752-2.883l0.552,1.823c-3.619,1.328-8.07,2.246-13.354,2.755c0,2.629-0.07,5.257-0.212,7.885h14.838
	v1.865h-5.215v21.788h-1.991v-21.788H335.721z"/>
</svg>
