<?xml version="1.0" encoding="utf-8"?>
<!-- Generator: Adobe Illustrator 15.0.0, SVG Export Plug-In  -->
<!DOCTYPE svg PUBLIC "-//W3C//DTD SVG 1.1//EN" "http://www.w3.org/Graphics/SVG/1.1/DTD/svg11.dtd" [
	<!ENTITY ns_flows "http://ns.adobe.com/Flows/1.0/">
]>
<svg version="1.1"
	 xmlns="http://www.w3.org/2000/svg" xmlns:xlink="http://www.w3.org/1999/xlink" xmlns:a="http://ns.adobe.com/AdobeSVGViewerExtensions/3.0/"
	 x="0px" y="0px" width="165px" height="91px" viewBox="-0.685 -0.489 165 91"
	 overflow="visible" enable-background="new -0.685 -0.489 165 91" xml:space="preserve">
<defs>
</defs>
<path fill="#3C8AAA" stroke="#3C8AAA" stroke-width="1.85" stroke-miterlimit="10" d="M81.691,85.598
	c-1.938-9.515-5.355-17.433-9.495-24.771c-3.07-5.443-6.627-10.468-9.918-15.747c-1.099-1.762-2.047-3.624-3.102-5.452
	c-2.111-3.657-3.822-7.897-3.714-13.397c0.106-5.374,1.661-9.685,3.901-13.209c3.686-5.796,9.86-10.549,18.145-11.798
	c6.773-1.021,13.124,0.704,17.627,3.337c3.68,2.152,6.529,5.026,8.695,8.414c2.262,3.536,3.818,7.713,3.949,13.162
	c0.066,2.792-0.391,5.376-1.034,7.521c-0.652,2.17-1.7,3.985-2.633,5.922c-1.82,3.783-4.103,7.249-6.393,10.718
	C90.898,60.627,84.496,71.162,81.691,85.598z"/>
<path opacity="0.2" enable-background="new    " d="M81.713,90.337c6.581-6.043,10.566-11.799,13.458-17.524
	c2.145-4.247,3.526-8.458,5.348-12.703c0.607-1.417,1.425-2.828,2.126-4.265c1.4-2.873,3.633-5.907,8.451-8.905
	c4.708-2.93,9.697-4.688,14.579-5.734c8.028-1.723,17.214-1.865,25.13,0.779c6.472,2.162,10.233,5.674,11.688,8.943
	c1.189,2.672,1.071,5.409-0.053,8.155c-1.172,2.865-3.478,5.803-8.055,8.869c-2.345,1.571-4.945,2.816-7.32,3.743
	c-2.404,0.938-4.83,1.52-7.267,2.216c-4.756,1.359-9.621,2.357-14.495,3.354C110.788,80.232,96.441,83.481,81.713,90.337z"/>
<path fill="#FFFFFF" fill-opacity="0" d="M38.031,77.266c-4.874-0.996-9.738-1.994-14.495-3.354
	c-2.436-0.697-4.862-1.278-7.266-2.217c-2.376-0.927-4.976-2.172-7.321-3.743c-4.577-3.066-6.882-6.004-8.055-8.869
	c-1.124-2.746-1.241-5.483-0.052-8.155c1.456-3.27,5.217-6.781,11.689-8.943c7.916-2.645,17.102-2.502,25.13-0.779
	c4.881,1.047,9.871,2.805,14.579,5.734c4.819,2.998,7.051,6.032,8.452,8.905c0.701,1.437,1.518,2.848,2.126,4.265
	c1.82,4.245,3.203,8.456,5.348,12.703c2.891,5.726,6.876,11.481,13.457,17.524C66.894,83.481,52.548,80.232,38.031,77.266z"/>
<path opacity="0.7" fill="#FFFFFF" enable-background="new    " d="M68.452,25.443c0,0,4.203,13.802,21.008,4.38
	c13.141-7.367,16.427,0.101,16.427,0.101s-3.385-12.246-18.317-5.877C87.569,24.049,73.629,34.205,68.452,25.443z"/>
<path opacity="0.4" fill="#FFFFFF" enable-background="new    " d="M57.857,22.457c0,0,4.203,13.8,21.007,4.38
	c13.141-7.366,16.427,0.1,16.427,0.1s-3.386-12.247-18.317-5.877C76.974,21.062,63.034,31.219,57.857,22.457z"/>
</svg>
